<svg width="300" height="48" viewBox="0 0 300 48" fill="none" xmlns="http://www.w3.org/2000/svg">
<path fill-rule="evenodd" clip-rule="evenodd" d="M20.2222 4H6.04938C3.81297 4 2 5.81297 2 8.04938V40.4444C2 42.6808 3.81297 44.4938 6.04938 44.4938H30.3456C32.582 44.4938 34.395 42.6808 34.395 40.4444V18.1728L20.2222 4Z" fill="white" stroke="#1E88E5" stroke-width="3.5" stroke-linecap="round" stroke-linejoin="round"/>
<path d="M20.2224 4V18.1728H34.3952" stroke="#1E88E5" stroke-width="3.5" stroke-linecap="round" stroke-linejoin="round"/>
<path d="M28.0468 26L16.9218 37.125L11.865 32.0682" stroke="#1E88E5" stroke-width="3.5" stroke-linecap="round" stroke-linejoin="round"/>
<path d="M69.72 45.6C66.4 45.6 63.52 45.08 61.08 44.04C58.68 43 56.84 41.64 55.56 39.96C54.28 38.24 53.6 36.4 53.52 34.44C53.52 34.12 53.64 33.84 53.88 33.6C54.16 33.32 54.48 33.18 54.84 33.18H57.9C58.66 33.18 59.18 33.58 59.46 34.38C59.82 36.06 60.84 37.5 62.52 38.7C64.24 39.9 66.64 40.5 69.72 40.5C73.04 40.5 75.54 39.92 77.22 38.76C78.9 37.56 79.74 35.9 79.74 33.78C79.74 32.42 79.32 31.32 78.48 30.48C77.68 29.64 76.48 28.9 74.88 28.26C73.28 27.62 70.88 26.82 67.68 25.86C64.56 24.98 62.08 24.04 60.24 23.04C58.4 22.04 57.02 20.8 56.1 19.32C55.18 17.84 54.72 15.98 54.72 13.74C54.72 11.58 55.3 9.64 56.46 7.92C57.66 6.2 59.36 4.86 61.56 3.9C63.76 2.9 66.38 2.4 69.42 2.4C72.54 2.4 75.22 2.96 77.46 4.08C79.7 5.16 81.4 6.54 82.56 8.22C83.72 9.9 84.34 11.58 84.42 13.26C84.42 13.58 84.3 13.86 84.06 14.1C83.86 14.34 83.56 14.46 83.16 14.46H79.98C79.14 14.46 78.62 14.08 78.42 13.32C78.18 11.64 77.24 10.26 75.6 9.18C73.96 8.06 71.9 7.5 69.42 7.5C66.7 7.5 64.56 8.02 63 9.06C61.44 10.1 60.66 11.64 60.66 13.68C60.66 15.04 61.02 16.16 61.74 17.04C62.5 17.92 63.64 18.7 65.16 19.38C66.68 20.02 68.9 20.76 71.82 21.6C75.22 22.52 77.9 23.48 79.86 24.48C81.82 25.44 83.28 26.66 84.24 28.14C85.2 29.58 85.68 31.42 85.68 33.66C85.68 37.38 84.24 40.3 81.36 42.42C78.48 44.54 74.6 45.6 69.72 45.6ZM105.044 45.6C100.644 45.6 97.2242 44.36 94.7842 41.88C92.3842 39.4 91.1042 36.1 90.9442 31.98L90.8842 29.4L90.9442 26.82C91.1042 22.74 92.4042 19.46 94.8442 16.98C97.2842 14.46 100.684 13.2 105.044 13.2C109.404 13.2 112.804 14.46 115.244 16.98C117.684 19.46 118.984 22.74 119.144 26.82C119.184 27.26 119.204 28.12 119.204 29.4C119.204 30.68 119.184 31.54 119.144 31.98C118.984 36.1 117.684 39.4 115.244 41.88C112.844 44.36 109.444 45.6 105.044 45.6ZM105.044 40.98C107.564 40.98 109.544 40.18 110.984 38.58C112.464 36.98 113.264 34.68 113.384 31.68C113.424 31.28 113.444 30.52 113.444 29.4C113.444 28.28 113.424 27.52 113.384 27.12C113.264 24.12 112.464 21.82 110.984 20.22C109.544 18.62 107.564 17.82 105.044 17.82C102.524 17.82 100.524 18.62 99.0442 20.22C97.5642 21.82 96.7842 24.12 96.7042 27.12L96.6442 29.4L96.7042 31.68C96.7842 34.68 97.5642 36.98 99.0442 38.58C100.524 40.18 102.524 40.98 105.044 40.98ZM130.366 45C129.966 45 129.626 44.88 129.346 44.64C129.106 44.36 128.986 44.02 128.986 43.62V18.6H123.886C123.486 18.6 123.146 18.48 122.866 18.24C122.626 17.96 122.506 17.62 122.506 17.22V15.18C122.506 14.78 122.626 14.46 122.866 14.22C123.146 13.94 123.486 13.8 123.886 13.8H128.986V10.8C128.986 4 132.426 0.599999 139.306 0.599999H142.906C143.306 0.599999 143.626 0.739999 143.866 1.02C144.146 1.26 144.286 1.58 144.286 1.98V4.02C144.286 4.42 144.146 4.76 143.866 5.04C143.626 5.28 143.306 5.4 142.906 5.4H139.426C137.626 5.4 136.366 5.88 135.646 6.84C134.926 7.76 134.566 9.18 134.566 11.1V13.8H142.306C142.706 13.8 143.026 13.94 143.266 14.22C143.546 14.46 143.686 14.78 143.686 15.18V17.22C143.686 17.62 143.546 17.96 143.266 18.24C143.026 18.48 142.706 18.6 142.306 18.6H134.566V43.62C134.566 44.02 134.426 44.36 134.146 44.64C133.906 44.88 133.586 45 133.186 45H130.366ZM160.632 45C154.312 45 151.152 41.48 151.152 34.44V18.6H146.472C146.072 18.6 145.732 18.48 145.452 18.24C145.212 17.96 145.092 17.62 145.092 17.22V15.18C145.092 14.78 145.212 14.46 145.452 14.22C145.732 13.94 146.072 13.8 146.472 13.8H151.152V3.78C151.152 3.38 151.272 3.06 151.512 2.82C151.792 2.54 152.132 2.4 152.532 2.4H155.352C155.752 2.4 156.072 2.54 156.312 2.82C156.592 3.06 156.732 3.38 156.732 3.78V13.8H164.172C164.572 13.8 164.892 13.94 165.132 14.22C165.412 14.46 165.552 14.78 165.552 15.18V17.22C165.552 17.62 165.412 17.96 165.132 18.24C164.892 18.48 164.572 18.6 164.172 18.6H156.732V34.02C156.732 36.02 157.072 37.54 157.752 38.58C158.432 39.58 159.552 40.08 161.112 40.08H164.772C165.172 40.08 165.492 40.22 165.732 40.5C166.012 40.74 166.152 41.06 166.152 41.46V43.62C166.152 44.02 166.012 44.36 165.732 44.64C165.492 44.88 165.172 45 164.772 45H160.632ZM173.549 45C173.149 45 172.809 44.88 172.529 44.64C172.289 44.36 172.169 44.02 172.169 43.62V4.44C172.169 4 172.289 3.66 172.529 3.42C172.809 3.14 173.149 3 173.549 3H176.549C177.189 3 177.709 3.32 178.109 3.96L190.769 28.2L203.549 3.96C203.629 3.72 203.789 3.5 204.029 3.3C204.309 3.1 204.649 3 205.049 3H207.989C208.429 3 208.769 3.14 209.009 3.42C209.289 3.66 209.429 4 209.429 4.44V43.62C209.429 44.02 209.289 44.36 209.009 44.64C208.729 44.88 208.389 45 207.989 45H205.049C204.649 45 204.309 44.88 204.029 44.64C203.789 44.36 203.669 44.02 203.669 43.62V14.1L193.649 33.66C193.249 34.5 192.609 34.92 191.729 34.92H189.869C188.989 34.92 188.349 34.5 187.949 33.66L177.869 14.1V43.62C177.869 44.02 177.729 44.36 177.449 44.64C177.209 44.88 176.889 45 176.489 45H173.549ZM227.226 45.6C225.266 45.6 223.446 45.2 221.766 44.4C220.086 43.6 218.746 42.52 217.746 41.16C216.786 39.76 216.306 38.22 216.306 36.54C216.306 33.9 217.386 31.74 219.546 30.06C221.746 28.34 224.706 27.22 228.426 26.7L237.366 25.44V23.7C237.366 19.62 235.026 17.58 230.346 17.58C228.586 17.58 227.146 17.96 226.026 18.72C224.906 19.44 224.066 20.3 223.506 21.3C223.386 21.66 223.226 21.92 223.026 22.08C222.866 22.24 222.626 22.32 222.306 22.32H219.726C219.366 22.32 219.046 22.2 218.766 21.96C218.526 21.68 218.406 21.36 218.406 21C218.446 20.04 218.886 18.96 219.726 17.76C220.606 16.52 221.946 15.46 223.746 14.58C225.546 13.66 227.766 13.2 230.406 13.2C234.886 13.2 238.106 14.26 240.066 16.38C242.026 18.46 243.006 21.06 243.006 24.18V43.62C243.006 44.02 242.866 44.36 242.586 44.64C242.346 44.88 242.026 45 241.626 45H238.866C238.466 45 238.126 44.88 237.846 44.64C237.606 44.36 237.486 44.02 237.486 43.62V41.04C236.606 42.32 235.326 43.4 233.646 44.28C231.966 45.16 229.826 45.6 227.226 45.6ZM228.486 41.1C231.086 41.1 233.206 40.26 234.846 38.58C236.526 36.86 237.366 34.4 237.366 31.2V29.52L230.406 30.54C227.566 30.94 225.426 31.62 223.986 32.58C222.546 33.5 221.826 34.68 221.826 36.12C221.826 37.72 222.486 38.96 223.806 39.84C225.126 40.68 226.686 41.1 228.486 41.1ZM252.511 45C252.111 45 251.771 44.88 251.491 44.64C251.251 44.36 251.131 44.02 251.131 43.62V15.24C251.131 14.84 251.251 14.5 251.491 14.22C251.771 13.94 252.111 13.8 252.511 13.8H255.271C255.671 13.8 256.011 13.94 256.291 14.22C256.571 14.5 256.711 14.84 256.711 15.24V17.88C258.351 15.16 261.151 13.8 265.111 13.8H267.451C267.851 13.8 268.171 13.94 268.411 14.22C268.691 14.46 268.831 14.78 268.831 15.18V17.64C268.831 18.04 268.691 18.36 268.411 18.6C268.171 18.84 267.851 18.96 267.451 18.96H263.851C261.691 18.96 259.991 19.6 258.751 20.88C257.511 22.12 256.891 23.82 256.891 25.98V43.62C256.891 44.02 256.751 44.36 256.471 44.64C256.191 44.88 255.851 45 255.451 45H252.511ZM274.864 45C274.464 45 274.124 44.88 273.844 44.64C273.604 44.36 273.484 44.02 273.484 43.62V3.78C273.484 3.38 273.604 3.06 273.844 2.82C274.124 2.54 274.464 2.4 274.864 2.4H277.684C278.084 2.4 278.404 2.54 278.644 2.82C278.924 3.06 279.064 3.38 279.064 3.78V24.66L290.884 14.82C291.004 14.74 291.204 14.58 291.484 14.34C291.764 14.14 292.024 14 292.264 13.92C292.544 13.84 292.884 13.8 293.284 13.8H296.464C296.824 13.8 297.124 13.92 297.364 14.16C297.604 14.4 297.724 14.7 297.724 15.06C297.724 15.5 297.484 15.88 297.004 16.2L283.144 27.72L298.504 42.66C298.984 43.06 299.224 43.42 299.224 43.74C299.224 44.1 299.104 44.4 298.864 44.64C298.624 44.88 298.324 45 297.964 45H294.844C294.244 45 293.804 44.94 293.524 44.82C293.284 44.7 292.924 44.42 292.444 43.98L279.064 31.2V43.62C279.064 44.02 278.924 44.36 278.644 44.64C278.404 44.88 278.084 45 277.684 45H274.864Z" fill="#1E88E5"/>
<path d="M21.8452 16.5866C21.7895 16.587 21.7442 16.5418 21.7446 16.486L21.8005 7.25206C21.801 7.16151 21.912 7.11825 21.9737 7.18456L30.5094 16.3626C30.5687 16.4263 30.5239 16.5301 30.4368 16.5307L21.8452 16.5866Z" fill="white"/>
</svg>
