<?xml version="1.0" standalone="no"?>
<!DOCTYPE svg PUBLIC "-//W3C//DTD SVG 20010904//EN"
 "http://www.w3.org/TR/2001/REC-SVG-20010904/DTD/svg10.dtd">
<svg version="1.0" xmlns="http://www.w3.org/2000/svg"
 width="704.000000pt" height="704.000000pt" viewBox="0 0 704.000000 704.000000"
 preserveAspectRatio="xMidYMid meet">
<metadata>
Created by potrace 1.11, written by Peter Selinger 2001-2013
</metadata>
<g transform="translate(0.000000,704.000000) scale(0.100000,-0.100000)"
fill="#000000" stroke="none">
<path d="M1448 7024 c-3 -2 -18 -6 -34 -9 -16 -2 -60 -13 -99 -25 -38 -12 -80
-24 -92 -27 -13 -3 -23 -9 -23 -14 0 -5 -8 -9 -17 -9 -10 0 -29 -9 -43 -20
-14 -11 -28 -20 -32 -20 -4 0 -35 -20 -70 -44 -70 -49 -228 -210 -228 -233 0
-3 -10 -20 -23 -37 -25 -34 -77 -148 -87 -191 -1 -5 -6 -18 -11 -27 -8 -15
-19 -68 -24 -110 0 -10 -4 -21 -8 -24 -12 -12 -8 -5393 4 -5449 6 -27 12 -61
15 -75 14 -76 66 -194 124 -287 60 -95 216 -253 250 -253 6 0 10 -4 10 -10 0
-5 46 -32 102 -59 99 -48 177 -75 263 -89 92 -16 4230 -8 4230 8 0 1 11 3 25
5 47 6 175 59 250 103 76 44 175 124 219 176 14 15 30 33 36 40 50 52 165 276
162 316 0 3 4 14 10 25 6 11 15 43 19 70 5 28 9 896 9 1930 0 1838 0 1881 -19
1920 -13 27 -401 421 -1186 1205 -642 641 -1176 1171 -1187 1179 -12 8 -24 13
-27 12 -3 -1 -20 6 -36 14 -26 14 -172 15 -1253 15 -674 0 -1227 -3 -1229 -6z"/>
</g>
</svg>
